<svg width="1000" height="1000" viewBox="0 0 1000 1000" fill="none" xmlns="http://www.w3.org/2000/svg">
<path d="M564.869 456.45C555.699 456.45 550.299 455.43 541.829 449.9C538.399 447.65 537.429 443.05 539.679 439.61C541.929 436.18 546.529 435.21 549.969 437.46C555.779 441.26 558.139 441.64 565.679 441.59C573.479 441.54 577.999 435.73 578.909 430.35C579.359 427.68 579.529 421.17 571.499 418.33C559.779 414.19 553.009 410.93 548.119 407.1C542.239 402.49 539.549 394.51 541.109 386.26C542.799 377.3 549.039 370.16 557.409 367.64C572.379 363.13 583.499 371.04 585.579 372.67C585.739 372.79 585.779 372.83 585.849 372.89C588.999 375.51 589.459 380.2 586.859 383.36C584.249 386.52 579.609 387 576.439 384.4C576.439 384.4 576.409 384.38 576.389 384.36C575.589 383.74 569.689 379.46 561.689 381.87C558.069 382.96 556.229 386.27 555.719 389C555.209 391.73 555.829 394.23 557.299 395.39C561.669 398.82 569.439 401.82 576.459 404.3C588.829 408.67 595.709 420.13 593.579 432.8C591.619 444.47 581.439 456.34 565.789 456.44C565.479 456.44 565.169 456.44 564.869 456.44V456.45Z" fill="#FF7950"/>
<path d="M566.209 381.08C562.109 381.08 558.779 377.75 558.779 373.65V358.57C558.779 354.47 562.109 351.14 566.209 351.14C570.309 351.14 573.639 354.47 573.639 358.57V373.65C573.639 377.75 570.309 381.08 566.209 381.08Z" fill="#FF7950"/>
<path d="M566.209 471.53C562.109 471.53 558.779 468.2 558.779 464.1V449.02C558.779 444.92 562.109 441.59 566.209 441.59C570.309 441.59 573.639 444.92 573.639 449.02V464.1C573.639 468.2 570.309 471.53 566.209 471.53Z" fill="#FF7950"/>
<path d="M566.209 501.68C516.389 501.68 475.859 461.15 475.859 411.33C475.859 361.51 516.389 320.98 566.209 320.98C616.029 320.98 656.559 361.51 656.559 411.33C656.559 461.15 616.029 501.68 566.209 501.68ZM566.209 335.85C524.589 335.85 490.729 369.71 490.729 411.33C490.729 452.95 524.589 486.81 566.209 486.81C607.829 486.81 641.689 452.95 641.689 411.33C641.689 369.71 607.829 335.85 566.209 335.85Z" fill="#FF7950"/>
<path d="M305.87 771.95C303.01 771.95 300.17 771.13 297.71 769.51C293.53 766.76 291.01 762.09 291.01 757.09V242.91C291.01 237.9 293.53 233.23 297.71 230.49C301.89 227.74 307.18 227.28 311.77 229.27L354.4 247.71L397.03 229.27C400.8 227.64 405.07 227.64 408.83 229.27L451.46 247.71L494.09 229.27C497.85 227.64 502.13 227.64 505.89 229.27L548.52 247.71L591.15 229.27C594.92 227.64 599.19 227.64 602.95 229.27L645.59 247.71L688.23 229.27C692.82 227.28 698.11 227.74 702.29 230.49C706.47 233.24 708.99 237.91 708.99 242.91V757.09C708.99 762.1 706.47 766.77 702.29 769.51C698.11 772.26 692.82 772.72 688.23 770.73L645.59 752.29L602.95 770.73C599.19 772.36 594.91 772.36 591.15 770.73L548.52 752.29L505.89 770.73C502.13 772.36 497.85 772.36 494.09 770.73L451.46 752.29L408.83 770.73C405.07 772.36 400.79 772.36 397.03 770.73L354.4 752.29L311.77 770.73C309.88 771.55 307.87 771.95 305.87 771.95ZM548.52 721.23C550.53 721.23 552.54 721.64 554.42 722.45L597.05 740.89L639.69 722.45C643.46 720.82 647.73 720.82 651.49 722.45L679.26 734.46V265.53L651.49 277.54C647.73 279.17 643.45 279.17 639.69 277.54L597.05 259.1L554.42 277.54C550.66 279.17 546.38 279.17 542.62 277.54L499.99 259.1L457.36 277.54C453.6 279.17 449.32 279.17 445.56 277.54L402.93 259.1L360.3 277.54C356.53 279.17 352.26 279.17 348.5 277.54L320.74 265.53V734.45L348.5 722.44C352.26 720.81 356.54 720.81 360.3 722.44L402.93 740.88L445.56 722.44C449.32 720.81 453.6 720.81 457.36 722.44L499.99 740.88L542.62 722.44C544.5 721.63 546.51 721.22 548.52 721.22V721.23Z" fill="#FF7950"/>
<path d="M641.661 687.22H358.341C350.131 687.22 343.471 680.56 343.471 672.35C343.471 664.14 350.131 657.48 358.341 657.48H641.661C649.871 657.48 656.531 664.14 656.531 672.35C656.531 680.56 649.871 687.22 641.661 687.22Z" fill="#FF7950"/>
<path d="M641.661 625.21H358.341C350.131 625.21 343.471 618.55 343.471 610.34C343.471 602.13 350.131 595.47 358.341 595.47H641.661C649.871 595.47 656.531 602.13 656.531 610.34C656.531 618.55 649.871 625.21 641.661 625.21Z" fill="#FF7950"/>
<path d="M641.691 563.2H358.341C350.131 563.2 343.471 556.54 343.471 548.33C343.471 540.12 350.131 533.46 358.341 533.46H641.691C649.901 533.46 656.561 540.12 656.561 548.33C656.561 556.54 649.901 563.2 641.691 563.2Z" fill="#FF7950"/>
<path d="M439.751 501.18H358.341C350.131 501.18 343.471 494.52 343.471 486.31C343.471 478.1 350.131 471.44 358.341 471.44H439.751C447.961 471.44 454.621 478.1 454.621 486.31C454.621 494.52 447.961 501.18 439.751 501.18Z" fill="#FF7950"/>
<path d="M439.751 439.17H358.341C350.131 439.17 343.471 432.51 343.471 424.3C343.471 416.09 350.131 409.43 358.341 409.43H439.751C447.961 409.43 454.621 416.09 454.621 424.3C454.621 432.51 447.961 439.17 439.751 439.17Z" fill="#FF7950"/>
<path d="M439.751 380.97H358.341C350.131 380.97 343.471 374.31 343.471 366.1C343.471 357.89 350.131 351.23 358.341 351.23H439.751C447.961 351.23 454.621 357.89 454.621 366.1C454.621 374.31 447.961 380.97 439.751 380.97Z" fill="#FF7950"/>
</svg>
