<svg width="1000" height="1000" viewBox="0 0 1000 1000" fill="none" xmlns="http://www.w3.org/2000/svg">
<g opacity="0.5">
<path d="M702.29 230.49C698.11 227.74 692.82 227.28 688.23 229.27L645.59 247.7L602.95 229.27C599.19 227.64 594.92 227.64 591.15 229.27L548.52 247.7L505.89 229.27C502.13 227.64 497.85 227.64 494.09 229.27L451.46 247.7L408.83 229.27C405.07 227.64 400.8 227.64 397.03 229.27L354.4 247.7L311.77 229.27C307.18 227.28 301.89 227.74 297.71 230.49C293.53 233.24 291.01 237.91 291.01 242.91V757.09C291.01 762.09 293.53 766.76 297.71 769.51C300.17 771.13 303.01 771.95 305.87 771.95C307.87 771.95 309.88 771.55 311.77 770.73L354.4 752.3L397.03 770.73C400.8 772.36 405.07 772.36 408.83 770.73L451.46 752.3L494.09 770.73C497.86 772.36 502.13 772.36 505.89 770.73L548.52 752.3L591.15 770.73C594.92 772.36 599.19 772.36 602.95 770.73L645.59 752.3L688.23 770.73C692.82 772.72 698.11 772.26 702.29 769.51C706.47 766.76 708.99 762.09 708.99 757.09V242.91C708.99 237.91 706.47 233.24 702.29 230.49ZM679.26 734.46L651.49 722.46C647.73 720.83 643.46 720.83 639.69 722.46L597.05 740.89L554.42 722.46C552.54 721.64 550.53 721.23 548.52 721.23C546.51 721.23 544.51 721.64 542.62 722.46L499.99 740.89L457.36 722.46C453.6 720.83 449.33 720.83 445.56 722.46L402.93 740.89L360.3 722.46C356.54 720.83 352.27 720.83 348.5 722.46L320.74 734.46V265.54L348.5 277.54C352.27 279.17 356.54 279.17 360.3 277.55L402.93 259.11L445.56 277.54C449.33 279.17 453.6 279.17 457.36 277.54L499.99 259.11L542.62 277.55C546.39 279.17 550.66 279.17 554.42 277.55L597.05 259.11L639.69 277.55C643.45 279.17 647.73 279.17 651.49 277.55L679.26 265.54V734.46Z" fill="white"/>
<path d="M651.49 277.55C647.73 279.17 643.45 279.17 639.69 277.55L597.05 259.11L554.42 277.55C550.66 279.17 546.39 279.17 542.62 277.55L499.99 259.11L457.36 277.54C453.6 279.17 449.33 279.17 445.56 277.54L402.93 259.11L360.3 277.55C356.54 279.17 352.27 279.17 348.5 277.54L320.74 265.54V734.46L348.5 722.46C352.27 720.83 356.54 720.83 360.3 722.46L402.93 740.89L445.56 722.46C449.33 720.83 453.6 720.83 457.36 722.46L499.99 740.89L542.62 722.46C544.51 721.64 546.52 721.23 548.52 721.23C550.52 721.23 552.54 721.64 554.42 722.46L597.05 740.89L639.69 722.46C643.46 720.83 647.73 720.83 651.49 722.46L679.26 734.46V265.54L651.49 277.55ZM358.34 351.24H439.75C447.96 351.24 454.62 357.89 454.62 366.11C454.62 374.33 447.96 380.97 439.75 380.97H358.34C350.13 380.97 343.47 374.32 343.47 366.11C343.47 357.9 350.13 351.24 358.34 351.24ZM358.34 409.44H439.75C447.96 409.44 454.62 416.09 454.62 424.3C454.62 432.51 447.96 439.17 439.75 439.17H358.34C350.13 439.17 343.47 432.51 343.47 424.3C343.47 416.09 350.13 409.44 358.34 409.44ZM358.34 471.45H439.75C447.96 471.45 454.62 478.11 454.62 486.32C454.62 494.53 447.96 501.18 439.75 501.18H358.34C350.13 501.18 343.47 494.53 343.47 486.32C343.47 478.11 350.13 471.45 358.34 471.45ZM641.66 687.22H358.34C350.13 687.22 343.47 680.57 343.47 672.36C343.47 664.15 350.13 657.49 358.34 657.49H641.66C649.87 657.49 656.53 664.15 656.53 672.36C656.53 680.57 649.87 687.22 641.66 687.22ZM641.66 625.21H358.34C350.13 625.21 343.47 618.55 343.47 610.34C343.47 602.13 350.13 595.48 358.34 595.48H641.66C649.87 595.48 656.53 602.13 656.53 610.34C656.53 618.55 649.87 625.21 641.66 625.21ZM641.69 563.2H358.34C350.13 563.2 343.47 556.54 343.47 548.33C343.47 540.12 350.13 533.46 358.34 533.46H641.69C649.9 533.46 656.56 540.12 656.56 548.33C656.56 556.54 649.9 563.2 641.69 563.2ZM566.21 501.68C516.39 501.68 475.86 461.15 475.86 411.33C475.86 361.51 516.39 320.98 566.21 320.98C616.03 320.98 656.56 361.51 656.56 411.33C656.56 461.15 616.03 501.68 566.21 501.68Z" fill="white"/>
<path d="M566.21 335.85C524.59 335.85 490.73 369.71 490.73 411.33C490.73 452.95 524.59 486.82 566.21 486.82C607.83 486.82 641.69 452.96 641.69 411.33C641.69 369.7 607.83 335.85 566.21 335.85ZM593.57 432.81C591.96 442.39 584.81 452.11 573.64 455.33V464.1C573.64 468.2 570.31 471.53 566.21 471.53C562.11 471.53 558.78 468.2 558.78 464.1V456.23C552.91 455.7 548.25 454.1 541.83 449.9C538.4 447.65 537.43 443.05 539.68 439.61C541.93 436.18 546.53 435.21 549.97 437.46C555.78 441.26 558.14 441.64 565.68 441.59C573.48 441.53 578.01 435.72 578.91 430.34C579.36 427.68 579.53 421.16 571.5 418.32C559.78 414.18 553.01 410.92 548.12 407.09C542.24 402.48 539.55 394.5 541.11 386.25C542.79 377.29 549.04 370.16 557.4 367.64C557.86 367.5 558.32 367.37 558.78 367.26V358.57C558.78 354.46 562.1 351.13 566.21 351.13C570.32 351.13 573.64 354.46 573.64 358.57V367.1C580.03 368.6 584.35 371.71 585.57 372.67C585.73 372.79 585.77 372.83 585.84 372.89C588.99 375.51 589.45 380.2 586.85 383.36C584.24 386.51 579.6 386.99 576.43 384.4C576.43 384.4 576.41 384.38 576.39 384.36C575.59 383.74 569.69 379.46 561.69 381.87C558.07 382.96 556.23 386.27 555.71 389.01C555.2 391.73 555.82 394.24 557.29 395.39C561.67 398.82 569.43 401.82 576.45 404.3C588.82 408.68 595.7 420.13 593.57 432.81Z" fill="white"/>
</g>
</svg>
