<svg width="1000" height="1000" viewBox="0 0 1000 1000" fill="none" xmlns="http://www.w3.org/2000/svg">
<path d="M686.37 417.93H581.57V312.49C581.57 284.82 559.28 262.39 531.78 262.39H468.23C440.73 262.39 418.44 284.82 418.44 312.49V417.93H313.64C286.14 417.93 263.85 440.36 263.85 468.03V531.96C263.85 559.63 286.14 582.06 313.64 582.06H418.44V687.5C418.44 715.17 440.73 737.6 468.23 737.6H531.78C559.28 737.6 581.57 715.17 581.57 687.5V582.06H686.37C713.87 582.06 736.16 559.63 736.16 531.96V468.03C736.16 440.36 713.87 417.93 686.37 417.93Z" stroke="#FF7950" stroke-width="21.83" stroke-linecap="round" stroke-linejoin="round"/>
</svg>
