<svg width="1000" height="1000" viewBox="0 0 1000 1000" fill="none" xmlns="http://www.w3.org/2000/svg">
<g opacity="0.5">
<path d="M704.96 405.33H604.03C598.8 405.33 594.55 401.07 594.55 395.83V294.75C594.55 258.16 564.82 228.4 528.27 228.4H471.73C435.18 228.4 405.45 258.16 405.45 294.75V395.83C405.45 401.07 401.2 405.33 395.97 405.33H295.04C258.49 405.33 228.76 435.1 228.76 471.69V528.31C228.76 564.9 258.49 594.67 295.04 594.67H395.97C401.2 594.67 405.45 598.93 405.45 604.17V705.25C405.45 741.84 435.18 771.6 471.73 771.6H528.27C564.82 771.6 594.55 741.84 594.55 705.25V604.17C594.55 598.93 598.8 594.67 604.03 594.67H704.96C741.51 594.67 771.24 564.9 771.24 528.31V471.69C771.24 435.1 741.51 405.33 704.96 405.33ZM746.46 528.31C746.46 551.23 727.84 569.88 704.96 569.88H604.03C585.14 569.88 569.77 585.27 569.77 604.17V705.25C569.77 728.17 551.15 746.82 528.27 746.82H471.73C448.85 746.82 430.23 728.17 430.23 705.25V604.17C430.23 585.27 414.86 569.88 395.97 569.88H295.04C272.16 569.88 253.54 551.23 253.54 528.31V471.69C253.54 448.77 272.16 430.12 295.04 430.12H395.97C414.86 430.12 430.23 414.73 430.23 395.83V294.75C430.23 271.83 448.85 253.18 471.73 253.18H528.27C551.15 253.18 569.77 271.83 569.77 294.75V395.83C569.77 414.73 585.14 430.12 604.03 430.12H704.96C727.84 430.12 746.46 448.77 746.46 471.69V528.31Z" fill="white"/>
<path d="M746.459 471.69V528.31C746.459 551.23 727.839 569.88 704.959 569.88H604.029C585.139 569.88 569.769 585.27 569.769 604.17V705.25C569.769 728.17 551.149 746.82 528.269 746.82H471.729C448.849 746.82 430.229 728.17 430.229 705.25V604.17C430.229 585.27 414.859 569.88 395.969 569.88H295.039C272.159 569.88 253.539 551.23 253.539 528.31V471.69C253.539 448.77 272.159 430.12 295.039 430.12H395.969C414.859 430.12 430.229 414.73 430.229 395.83V294.75C430.229 271.83 448.849 253.18 471.729 253.18H528.269C551.149 253.18 569.769 271.83 569.769 294.75V395.83C569.769 414.73 585.139 430.12 604.029 430.12H704.959C727.839 430.12 746.459 448.77 746.459 471.69Z" fill="white"/>
</g>
</svg>
