<svg width="1000" height="1000" viewBox="0 0 1000 1000" fill="none" xmlns="http://www.w3.org/2000/svg">
<g opacity="0.5">
<path d="M726.61 232.92H673.81C648.78 232.92 628.42 252.9 628.42 277.45V636.85C628.42 661.4 648.78 681.38 673.81 681.38H726.61C751.64 681.38 772.01 661.4 772.01 636.85V277.45C772.01 252.9 751.64 232.92 726.61 232.92ZM747.22 636.85C747.22 647.73 737.98 656.59 726.61 656.59H673.81C662.44 656.59 653.2 647.73 653.2 636.85V277.45C653.2 266.56 662.44 257.71 673.81 257.71H726.61C737.98 257.71 747.22 266.56 747.22 277.45V636.85Z" fill="white"/>
<path d="M747.219 277.45V636.85C747.219 647.73 737.979 656.59 726.609 656.59H673.809C662.439 656.59 653.199 647.73 653.199 636.85V277.45C653.199 266.56 662.439 257.71 673.809 257.71H726.609C737.979 257.71 747.219 266.56 747.219 277.45Z" fill="white"/>
<path d="M326.19 354.28H273.39C248.36 354.28 228 374.26 228 398.81V636.85C228 661.4 248.36 681.38 273.39 681.38H326.19C351.22 681.38 371.58 661.4 371.58 636.85V398.81C371.58 374.26 351.22 354.28 326.19 354.28ZM346.8 636.85C346.8 647.73 337.56 656.59 326.19 656.59H273.39C262.02 656.59 252.78 647.73 252.78 636.85V398.81C252.78 387.92 262.02 379.06 273.39 379.06H326.19C337.56 379.06 346.8 387.92 346.8 398.81V636.85Z" fill="white"/>
<path d="M346.799 398.81V636.85C346.799 647.73 337.559 656.59 326.189 656.59H273.389C262.019 656.59 252.779 647.73 252.779 636.85V398.81C252.779 387.92 262.019 379.06 273.389 379.06H326.189C337.559 379.06 346.799 387.92 346.799 398.81Z" fill="white"/>
<path d="M526.401 438.59H473.601C448.571 438.59 428.211 458.57 428.211 483.12V636.85C428.211 661.4 448.571 681.38 473.601 681.38H526.401C551.431 681.38 571.791 661.4 571.791 636.85V483.12C571.791 458.57 551.431 438.59 526.401 438.59ZM547.011 636.85C547.011 647.73 537.771 656.59 526.401 656.59H473.601C462.231 656.59 452.991 647.73 452.991 636.85V483.12C452.991 472.23 462.231 463.38 473.601 463.38H526.401C537.771 463.38 547.011 472.23 547.011 483.12V636.85Z" fill="white"/>
<path d="M547.01 483.12V636.85C547.01 647.73 537.77 656.59 526.4 656.59H473.6C462.23 656.59 452.99 647.73 452.99 636.85V483.12C452.99 472.23 462.23 463.38 473.6 463.38H526.4C537.77 463.38 547.01 472.23 547.01 483.12Z" fill="white"/>
<path d="M759.61 767.08H240.38C233.54 767.08 227.99 761.53 227.99 754.69C227.99 747.85 233.54 742.3 240.38 742.3H759.61C766.45 742.3 772 747.85 772 754.69C772 761.53 766.45 767.08 759.61 767.08Z" fill="white"/>
</g>
</svg>
