<svg width="1000" height="1000" viewBox="0 0 1000 1000" fill="none" xmlns="http://www.w3.org/2000/svg">
<path d="M640.811 636.85V277.46C640.811 259.71 655.591 245.32 673.811 245.32H726.611C744.841 245.32 759.611 259.71 759.611 277.46V636.85C759.611 654.6 744.831 668.99 726.611 668.99H673.811C655.581 668.99 640.811 654.6 640.811 636.85Z" stroke="#FF7950" stroke-width="24.78" stroke-linecap="round" stroke-linejoin="round"/>
<path d="M240.391 636.85V398.81C240.391 381.06 255.171 366.67 273.391 366.67H326.191C344.421 366.67 359.191 381.06 359.191 398.81V636.85C359.191 654.6 344.411 668.99 326.191 668.99H273.391C255.161 668.99 240.391 654.6 240.391 636.85Z" stroke="#FF7950" stroke-width="24.78" stroke-linecap="round" stroke-linejoin="round"/>
<path d="M440.602 636.85V483.12C440.602 465.37 455.382 450.98 473.602 450.98H526.402C544.632 450.98 559.402 465.37 559.402 483.12V636.85C559.402 654.6 544.622 668.99 526.402 668.99H473.602C455.372 668.99 440.602 654.6 440.602 636.85Z" stroke="#FF7950" stroke-width="24.78" stroke-linecap="round" stroke-linejoin="round"/>
<path d="M240.391 754.68H759.621" stroke="#FF7950" stroke-width="24.78" stroke-linecap="round" stroke-linejoin="round"/>
</svg>
