<svg width="1000" height="1000" viewBox="0 0 1000 1000" fill="none" xmlns="http://www.w3.org/2000/svg">
<g opacity="0.5">
<path d="M598.421 290.07L597.251 291.27C588.651 300.11 576.641 305.18 564.291 305.18H454.791C430.491 305.18 411.821 304.08 400.311 291.23C404.451 285.23 409.181 279.57 414.461 274.3C437.311 251.5 467.691 238.94 500.001 238.94H500.061C540.551 238.96 576.461 259.16 598.421 290.07Z" fill="white"/>
<path d="M621 360.98V414.8C621 424.03 617.39 432.71 610.85 439.24C604.62 445.45 596.43 449.01 587.67 449.33V380.06C587.67 376.5 587.45 372.91 587.03 369.4C585.01 352.87 570.92 340.27 554.23 340.1L446.58 339.02H446.24C429.68 339.02 415.5 351.33 413.19 367.77C412.62 371.81 412.33 375.95 412.33 380.06V449.33C403.57 449.01 395.39 445.45 389.15 439.24C382.61 432.71 379 424.03 379 414.8V359.7C379 343.68 382.11 328.13 388.03 313.76C407.57 329.96 434.23 329.96 454.79 329.96H564.29C581.43 329.96 598.15 323.61 610.98 312.38C617.43 327.28 621 343.72 621 360.98Z" fill="white"/>
<path d="M576.031 471.76C563.351 501.91 533.751 522.01 500.001 522.01C466.251 522.01 436.651 501.91 423.971 471.76C431.741 467.94 437.111 459.92 437.111 450.68V380.06C437.111 377.1 437.321 374.13 437.731 371.23C438.331 366.98 441.981 363.81 446.241 363.81H446.331L553.981 364.89C558.281 364.93 561.911 368.16 562.421 372.4C562.731 374.92 562.891 377.49 562.891 380.06V450.68C562.891 459.92 568.261 467.94 576.031 471.76Z" fill="white"/>
<path d="M720.75 666.24L716.83 609.08C715.18 584.91 698.17 565.07 674.5 559.72C674.42 559.71 674.35 559.69 674.27 559.67L647.06 554.07L564.78 537.11V554.56C564.78 557.18 564.62 559.77 564.31 562.31C560.47 594.21 533.2 619.01 500.24 619.01C467.28 619.01 439.99 594.2 436.16 562.3C435.85 559.76 435.69 557.18 435.69 554.56V537.1L325.76 559.69C325.69 559.71 325.61 559.72 325.54 559.74C302.22 564.99 284.8 585.29 283.17 609.1L279.25 666.24C278.91 671.2 280.22 676.13 282.9 680.26L301.68 740.38C302.74 751.97 312.04 761.06 323.32 761.06H371.64C371.82 761.06 372 761.06 372.18 761.04C372.21 761.04 372.25 761.05 372.28 761.04C372.43 761.06 372.56 761.06 372.71 761.06H627.29C627.43 761.06 627.58 761.06 627.72 761.04C627.76 761.05 627.79 761.04 627.83 761.04C628.01 761.06 628.18 761.06 628.36 761.06H676.68C687.96 761.06 697.26 751.97 698.32 740.38L717.1 680.26C719.78 676.13 721.09 671.2 720.75 666.24ZM385.1 736.28H360.32V690.7H311.95L304.11 665.91H362.19C374.82 665.91 385.1 676.19 385.1 688.81V736.28ZM688.05 690.7H639.68V736.28H614.9V688.81C614.9 676.19 625.18 665.91 637.81 665.91H695.89L688.05 690.7Z" fill="white"/>
<path d="M540.001 539.05V554.56C540.001 576.44 522.161 594.23 500.241 594.23C478.321 594.23 460.471 576.44 460.471 554.56V539.24C472.981 544.18 486.421 546.79 500.001 546.79C513.581 546.79 527.351 544.12 540.001 539.05Z" fill="white"/>
</g>
</svg>
