<svg width="1000" height="1000" viewBox="0 0 1000 1000" fill="none" xmlns="http://www.w3.org/2000/svg">
<path d="M371.641 761.06H323.311C318.151 761.06 313.961 756.36 313.961 750.55L294.561 688.47" stroke="#FF7950" stroke-width="24.78" stroke-linecap="round" stroke-linejoin="round"/>
<path d="M628.359 761.06H676.689C681.849 761.06 686.039 756.36 686.039 750.55L705.439 688.47" stroke="#FF7950" stroke-width="24.78" stroke-linecap="round" stroke-linejoin="round"/>
<path d="M385.35 304.01C385.44 304.16 385.53 304.32 385.63 304.47C400.19 328.63 426.55 329.96 454.79 329.96H548.6H564.29C580.05 329.96 595.15 323.59 606.13 312.3L614.2 304.01" stroke="#FF7950" stroke-width="24.78" stroke-linecap="round" stroke-linejoin="round"/>
<path d="M554.109 364.89C564.629 365 573.459 372.87 574.729 383.29C575.099 386.29 575.279 389.35 575.279 392.45V463.07C575.279 469.13 580.169 474.12 586.239 474.13C612.269 474.2 633.389 453.16 633.389 427.19V373.36C633.389 299.64 573.919 238.97 500.069 238.94C426.369 238.9 366.609 298.53 366.609 372.09V427.19C366.609 453.16 387.729 474.2 413.759 474.13C419.829 474.11 424.719 469.13 424.719 463.07V392.45C424.719 388.87 424.969 385.34 425.459 381.89C426.929 371.45 435.899 363.7 446.449 363.81L554.109 364.89Z" stroke="#FF7950" stroke-width="24.78" stroke-linecap="round" stroke-linejoin="round"/>
<path d="M592.309 474.14C582.339 515.81 544.799 546.79 499.999 546.79C455.199 546.79 417.659 515.81 407.689 474.14" stroke="#FF7950" stroke-width="24.78" stroke-linecap="round" stroke-linejoin="round"/>
<path d="M552.39 533.9V566.96C552.39 595.71 529.04 619.02 500.24 619.02C471.44 619.02 448.09 595.71 448.09 566.96V533.18" stroke="#FF7950" stroke-width="24.78" stroke-linecap="round" stroke-linejoin="round"/>
<path d="M644.56 578.59L671.77 584.2C689.91 588.3 703.2 603.8 704.47 622.32L708.38 679.48C708.8 685.55 703.98 690.7 697.88 690.7H637.81C632 690.7 627.29 695.4 627.29 701.21V761.07H372.71V701.21C372.71 695.41 368 690.7 362.19 690.7H302.12C296.03 690.7 291.21 685.55 291.62 679.48L295.53 622.35C296.8 603.82 310.11 588.32 328.26 584.23L448.08 559.61" stroke="#FF7950" stroke-width="24.78" stroke-linecap="round" stroke-linejoin="round"/>
<path d="M552.391 559.59L610.091 571.48L644.561 578.59" stroke="#FF7950" stroke-width="24.78" stroke-linecap="round" stroke-linejoin="round"/>
</svg>
