<svg width="1000" height="1000" viewBox="0 0 1000 1000" fill="none" xmlns="http://www.w3.org/2000/svg">
<g opacity="0.5">
<path d="M764.549 400.81C759.969 398.87 754.669 399.86 751.089 403.32L576.589 572.37C533.789 613.83 464.159 613.83 421.369 572.37C416.559 567.72 408.929 567.72 404.129 572.37L231.659 739.45C228.039 742.96 226.899 748.32 228.799 753C230.689 757.68 235.239 760.74 240.279 760.74H655.909C719.979 760.74 772.109 709.88 772.109 647.37V412.23C772.109 407.25 769.129 402.76 764.549 400.81ZM747.319 647.37C747.319 696.22 706.309 735.95 655.909 735.95H270.889L413.129 598.16C425.179 607.92 438.719 615.46 453.199 620.56C467.689 625.65 483.129 628.31 498.979 628.31C534.759 628.31 568.449 614.77 593.829 590.18L747.319 441.48V647.37Z" fill="white"/>
<path d="M747.319 441.48V647.37C747.319 696.22 706.309 735.95 655.909 735.95H270.889L413.129 598.16C425.179 607.92 438.719 615.46 453.199 620.56C467.689 625.65 483.129 628.31 498.979 628.31C534.759 628.31 568.449 614.77 593.829 590.18L747.319 441.48Z" fill="white"/>
<path d="M240.279 600.33C237.039 600.33 233.809 599.07 231.379 596.56C226.619 591.65 226.739 583.8 231.649 579.04L360.999 453.68C389.529 426.03 435.949 426.03 464.479 453.68L484.599 473.18C492.519 480.86 505.419 480.86 513.339 473.18L751.079 242.76C755.989 238 763.839 238.12 768.599 243.03C773.359 247.94 773.239 255.79 768.329 260.55L530.589 490.97C513.159 507.87 484.789 507.87 467.349 490.97L447.229 471.47C428.209 453.04 397.269 453.04 378.249 471.47L248.899 596.83C246.489 599.16 243.379 600.32 240.279 600.32V600.33Z" fill="white"/>
<path d="M759.719 345.46C752.879 345.46 747.329 339.91 747.329 333.07V264.17H676.079C669.239 264.17 663.689 258.62 663.689 251.78C663.689 244.94 669.239 239.39 676.079 239.39H759.719C766.559 239.39 772.109 244.94 772.109 251.78V333.08C772.109 339.92 766.559 345.47 759.719 345.47V345.46Z" fill="white"/>
</g>
</svg>
